<svg xmlns="http://www.w3.org/2000/svg" viewBox="0 0 800 450"><defs><linearGradient id="g" x1="0" y1="0" x2="1" y2="1"><stop stop-color="#d7b9ff"/><stop offset="1" stop-color="#7860bd"/></linearGradient></defs><rect width="800" height="450" fill="#25320d"/><circle cx="700" cy="80" r="220" fill="#fff" opacity=".05"/><path d="M400 69c-108 0-196 69-196 155 0 53 34 100 86 128v44l58-25c17 4 34 7 52 7 108 0 196-69 196-154S508 69 400 69z" fill="url(#g)"/><g fill="none" stroke="#fff" stroke-width="14"><circle cx="327" cy="213" r="28"/><circle cx="473" cy="213" r="28"/><path d="M355 213h90M400 185v-58M400 299v-58M327 185l-41-41M473 185l41-41M327 241l-41 41M473 241l41 41"/></g><circle cx="400" cy="213" r="20" fill="#fff"/></svg>
