<svg xmlns="http://www.w3.org/2000/svg" viewBox="0 0 800 450"><defs><linearGradient id="g" x1="0" y1="0" x2="1" y2="1"><stop stop-color="#67d3ff"/><stop offset="1" stop-color="#1594d2"/></linearGradient></defs><rect width="800" height="450" fill="#25320d"/><circle cx="90" cy="50" r="190" fill="#fff" opacity=".05"/><path d="M176 249h463c-9 72-64 127-142 127H322c-77 0-132-43-146-127z" fill="url(#g)"/><path d="M604 229c33-1 57-17 70-49 22 15 31 38 25 68-31 8-62 5-95-19z" fill="#67d3ff"/><g fill="#67d3ff"><rect x="238" y="183" width="62" height="52" rx="5"/><rect x="309" y="183" width="62" height="52" rx="5"/><rect x="380" y="183" width="62" height="52" rx="5"/><rect x="451" y="183" width="62" height="52" rx="5"/><rect x="309" y="122" width="62" height="52" rx="5"/><rect x="380" y="122" width="62" height="52" rx="5"/><rect x="451" y="122" width="62" height="52" rx="5"/><rect x="380" y="61" width="62" height="52" rx="5"/></g></svg>
