<svg xmlns="http://www.w3.org/2000/svg" viewBox="0 0 800 450"><defs><linearGradient id="g" x1="0" y1="0" x2="1" y2="1"><stop stop-color="#fff3b0"/><stop offset="1" stop-color="#d4af37"/></linearGradient></defs><rect width="800" height="450" fill="#25320d"/><circle cx="670" cy="70" r="190" fill="#fff" opacity=".06"/><path d="M130 335 260 105h280l130 230z" fill="url(#g)" opacity=".18"/><rect x="265" y="85" width="270" height="280" rx="42" fill="url(#g)"/><path d="M420 155v115c0 48-24 75-72 75-35 0-58-16-72-43l48-28c8 15 15 24 29 24 14 0 22-6 22-29V155zm32 0h55v119c0 21 8 28 22 28 13 0 21-7 29-24l47 27c-15 29-40 43-78 43-48 0-75-25-75-75z" fill="#25320d"/></svg>
