<svg xmlns="http://www.w3.org/2000/svg" viewBox="0 0 800 450"><defs><linearGradient id="g" x1="0" y1="0" x2="1" y2="1"><stop stop-color="#b9c7ff"/><stop offset="1" stop-color="#6c7eb7"/></linearGradient></defs><rect width="800" height="450" fill="#25320d"/><circle cx="120" cy="390" r="220" fill="#fff" opacity=".05"/><ellipse cx="400" cy="225" rx="285" ry="150" fill="url(#g)"/><path d="M245 165h70c58 0 86 23 77 73-9 49-45 72-102 72h-30l-13 69h-58zm26 101h25c23 0 36-9 40-28 3-20-7-29-29-29h-25zm132-101h57l-14 73c18-18 38-25 60-25 44 0 60 25 51 72l-18 94h-57l17-87c4-23-1-34-19-34-19 0-38 17-43 45l-15 76h-57zm180 0h70c58 0 86 23 77 73-9 49-45 72-102 72h-30l-13 69h-58zm26 101h25c23 0 36-9 40-28 3-20-7-29-29-29h-25z" fill="#fff"/></svg>
