<svg xmlns="http://www.w3.org/2000/svg" viewBox="0 0 800 450"><defs><linearGradient id="a" x1="0" y1="0" x2="1" y2="1"><stop stop-color="#58b7e8"/><stop offset="1" stop-color="#3477a8"/></linearGradient><linearGradient id="b" x1="1" y1="1" x2="0" y2="0"><stop stop-color="#ffe878"/><stop offset="1" stop-color="#d4af37"/></linearGradient></defs><rect width="800" height="450" fill="#25320d"/><circle cx="680" cy="390" r="220" fill="#fff" opacity=".06"/><path d="M390 75c-105 0-99 46-99 46v52h103v16H250s-69-8-69 101 60 105 60 105h36v-51s-2-60 59-60h101s57 1 57-55V132s9-57-104-57zm-57 32a20 20 0 1 1 0 40 20 20 0 0 1 0-40z" fill="url(#a)"/><path d="M410 375c105 0 99-46 99-46v-52H406v-16h144s69 8 69-101-60-105-60-105h-36v51s2 60-59 60H363s-57-1-57 55v97s-9 57 104 57zm57-32a20 20 0 1 1 0-40 20 20 0 0 1 0 40z" fill="url(#b)"/></svg>
